<svg xmlns="http://www.w3.org/2000/svg" xmlns:xlink="http://www.w3.org/1999/xlink" fill="none" version="1.1" width="22.5" height="36" viewBox="0 0 22.5 36"><defs><clipPath id="master_svg0_10_2734"><rect x="0" y="3" width="22.5" height="30" rx="0"/></clipPath></defs><g><rect x="0" y="0" width="22.5" height="36" rx="0" fill="#000000" fill-opacity="0" style="mix-blend-mode:passthrough"/><g clip-path="url(#master_svg0_10_2734)"><g transform="matrix(1,0,0,-1,0,67.2890625)"><g><path d="M2.8125,63.64453125Q1.64062,63.58593125,0.820312,62.82423125Q0.0585938,62.00393125,0,60.83203125L0,36.45703125Q0.0585938,35.28515125,0.820312,34.46484325Q1.64062,33.70312505,2.8125,33.64453125L8.4375,33.64453125L8.4375,38.33203125Q8.49609,39.50391125,9.25781,40.32422125Q10.0781,41.08594125,11.25,41.14453125Q12.4219,41.08594125,13.2422,40.32422125Q14.0039,39.50391125,14.0625,38.33203125L14.0625,33.64453125L19.6875,33.64453125Q20.8594,33.70312505,21.6797,34.46484325Q22.4414,35.28515125,22.5,36.45703125L22.5,60.83203125Q22.4414,62.00393125,21.6797,62.82423125Q20.8594,63.58593125,19.6875,63.64453125L2.8125,63.64453125ZM3.75,49.58203125Q3.80859,50.46093125,4.6875,50.51953125L6.5625,50.51953125Q7.44141,50.46093125,7.5,49.58203125L7.5,47.70703125Q7.44141,46.82813125,6.5625,46.76953125L4.6875,46.76953125Q3.80859,46.82813125,3.75,47.70703125L3.75,49.58203125ZM10.3125,50.51953125L12.1875,50.51953125L10.3125,50.51953125L12.1875,50.51953125Q13.0664,50.46093125,13.125,49.58203125L13.125,47.70703125Q13.0664,46.82813125,12.1875,46.76953125L10.3125,46.76953125Q9.43359,46.82813125,9.375,47.70703125L9.375,49.58203125Q9.43359,50.46093125,10.3125,50.51953125ZM15,49.58203125Q15.0586,50.46093125,15.9375,50.51953125L17.8125,50.51953125Q18.6914,50.46093125,18.75,49.58203125L18.75,47.70703125Q18.6914,46.82813125,17.8125,46.76953125L15.9375,46.76953125Q15.0586,46.82813125,15,47.70703125L15,49.58203125ZM4.6875,58.01953125L6.5625,58.01953125L4.6875,58.01953125L6.5625,58.01953125Q7.44141,57.96093125,7.5,57.08203125L7.5,55.20703125Q7.44141,54.32813125,6.5625,54.26953125L4.6875,54.26953125Q3.80859,54.32813125,3.75,55.20703125L3.75,57.08203125Q3.80859,57.96093125,4.6875,58.01953125ZM9.375,57.08203125Q9.43359,57.96093125,10.3125,58.01953125L12.1875,58.01953125Q13.0664,57.96093125,13.125,57.08203125L13.125,55.20703125Q13.0664,54.32813125,12.1875,54.26953125L10.3125,54.26953125Q9.43359,54.32813125,9.375,55.20703125L9.375,57.08203125ZM15.9375,58.01953125L17.8125,58.01953125L15.9375,58.01953125L17.8125,58.01953125Q18.6914,57.96093125,18.75,57.08203125L18.75,55.20703125Q18.6914,54.32813125,17.8125,54.26953125L15.9375,54.26953125Q15.0586,54.32813125,15,55.20703125L15,57.08203125Q15.0586,57.96093125,15.9375,58.01953125Z" fill="#9CA3AF" fill-opacity="1" style="mix-blend-mode:passthrough"/></g></g></g></g></svg>