<svg xmlns="http://www.w3.org/2000/svg" xmlns:xlink="http://www.w3.org/1999/xlink" fill="none" version="1.1" width="37.5" height="30" viewBox="0 0 37.5 30"><defs><clipPath id="master_svg0_10_991"><rect x="0" y="0" width="37.5" height="30" rx="0"/></clipPath></defs><g clip-path="url(#master_svg0_10_991)"><g transform="matrix(1,0,0,-1,0,57.5390625)"><g><path d="M8.4375,28.76953125Q4.86328,28.88671925,2.46094,31.23047125Q0.117188,33.63281125,0,37.20703125Q0.0585938,40.01953125,1.58203,42.12893125Q3.10547,44.23833125,5.625,45.17573125Q5.625,45.41013125,5.625,45.64453125Q5.74219,49.62893125,8.37891,52.26563125Q11.0156,54.90233125,15,55.01953125Q17.6367,54.96093125,19.7461,53.730431249999995Q21.8555,52.44143125,23.1445,50.33203125Q24.4922,51.26953125,26.25,51.26953125Q28.6523,51.21093125,30.2344,49.62893125Q31.8164,48.04683125,31.875,45.64453125Q31.875,44.58983125,31.5234,43.59373125Q34.1016,43.06643125,35.8008,41.01563125Q37.4414,39.02343125,37.5,36.26953125Q37.4414,33.10547125,35.332,30.93750125Q33.1641,28.82812505,30,28.76953125L8.4375,28.76953125ZM13.0664,41.48433125Q12.2461,40.48833125,13.0664,39.49223125Q14.0625,38.67187125,15.0586,39.49223125L17.3438,41.77733125L17.3438,33.92578125Q17.4609,32.63672125,18.75,32.51953125Q20.0391,32.63672125,20.1562,33.92578125L20.1562,41.77733125L22.4414,39.49223125Q23.4375,38.67187125,24.4336,39.49223125Q25.2539,40.48833125,24.4336,41.48433125L19.7461,46.17183125Q18.75,46.99223125,17.7539,46.17183125L13.0664,41.48433125Z" fill="#9CA3AF" fill-opacity="1" style="mix-blend-mode:passthrough"/></g></g></g></svg>