<svg xmlns="http://www.w3.org/2000/svg" xmlns:xlink="http://www.w3.org/1999/xlink" fill="none" version="1.1" width="33.75" height="36" viewBox="0 0 33.75 36"><defs><clipPath id="master_svg0_10_2724"><rect x="0.4140625" y="3" width="32.921875" height="30" rx="0"/></clipPath></defs><g><rect x="0" y="0" width="33.75" height="36" rx="0" fill="#000000" fill-opacity="0" style="mix-blend-mode:passthrough"/><g clip-path="url(#master_svg0_10_2724)"><g transform="matrix(1,0,0,-1,0,67.28907775878906)"><g><path d="M32.105857395267485,57.55073887939453L28.708257395267488,62.88283887939453L32.105857395267485,57.55073887939453L28.708257395267488,62.88283887939453Q28.239657395267486,63.64453887939453,27.302357395267485,63.64453887939453L6.447907395267486,63.64453887939453Q5.510627395267487,63.64453887939453,5.041987395267487,62.88283887939453L1.6443603952674866,57.55073887939453Q0.4141833952674866,55.38283887939453,1.2928813952674867,53.214838879394534Q2.2301573952674865,51.04683887939453,4.690517395267486,50.57813887939453Q5.041987395267487,50.51953887939453,5.3934673952674865,50.51953887939453Q7.795247395267487,50.57813887939453,9.259737395267486,52.218738879394536Q10.665657395267486,50.57813887939453,13.067457395267487,50.51953887939453Q15.410657395267487,50.57813887939453,16.875157395267486,52.218738879394536Q18.339657395267487,50.57813887939453,20.682857395267487,50.51953887939453Q23.025957395267486,50.57813887939453,24.490457395267487,52.218738879394536Q25.954957395267485,50.57813887939453,28.356757395267486,50.51953887939453Q28.708257395267488,50.51953887939453,29.059757395267486,50.57813887939453Q31.520057395267486,51.04683887939453,32.457357395267486,53.214838879394534Q33.33605739526749,55.38283887939453,32.105857395267485,57.55073887939453ZM29.294057395267487,48.70313887939453Q28.825457395267488,48.64453887939453,28.298157395267488,48.64453887939453Q27.243757395267487,48.64453887939453,26.247857395267488,48.93753887939453L26.247857395267488,41.14453887939453L7.502347395267487,41.14453887939453L7.502347395267487,48.93753887939453Q6.506487395267486,48.64453887939453,5.3934673952674865,48.64453887939453Q4.924827395267487,48.64453887939453,4.456197395267487,48.70313887939453Q4.104717395267487,48.76173887939453,3.7532373952674867,48.820338879394534L3.7532373952674867,41.14453887939453L3.7532373952674867,37.39453887939453Q3.8118173952674868,35.81250887939453,4.866247395267487,34.757818879394534Q5.920687395267486,33.70313267939453,7.502347395267487,33.64453887939453L26.247857395267488,33.64453887939453Q27.829557395267486,33.70313267939453,28.883957395267487,34.757818879394534Q29.938457395267488,35.81250887939453,29.997057395267486,37.39453887939453L29.997057395267486,41.14453887939453L29.997057395267486,48.820338879394534Q29.64555739526749,48.76173887939453,29.294057395267487,48.70313887939453Z" fill="#9CA3AF" fill-opacity="1" style="mix-blend-mode:passthrough"/></g></g></g></g></svg>